<svg xmlns="http://www.w3.org/2000/svg" xmlns:xlink="http://www.w3.org/1999/xlink" width="121" height="34"><defs><path id="a" d="M0 33.91h120.63V0H0z"/></defs><g fill="none" fill-rule="evenodd" transform="translate(-40 -19)"><g transform="translate(40 19)"><g><path fill="#3C1E0F" d="M0 11.146h5.523v3.664c1.468-3.062 3.938-4.174 7.001-4.108 3.089.067 5.434 1.452 6.826 4.245.492-.627.939-1.311 1.498-1.886 1.426-1.466 3.219-2.168 5.238-2.334 1.337-.11 2.651.006 3.927.434 2.356.79 3.804 2.478 4.636 4.752.597 1.634.765 3.34.767 5.066.006 4.02.003 8.038.002 12.058 0 .1-.013.202-.023.344H29.95v-.598c0-3.73.02-7.46-.015-11.189-.008-.857-.108-1.742-.346-2.562-.486-1.68-1.629-2.758-3.4-2.959-2.003-.226-3.712.352-4.816 2.174a5.67 5.67 0 00-.818 2.912c-.04 3.847-.053 7.694-.075 11.541-.002.22 0 .438 0 .69h-5.537v-.613c-.004-3.985.008-7.97-.02-11.955-.01-1.285-.343-2.508-1.225-3.488-1.368-1.52-3.102-1.573-4.887-1.005-2.044.651-2.942 2.244-3.18 4.268-.083.708-.085 1.427-.087 2.142-.009 3.338-.004 6.675-.004 10.013v.672H0V11.146zM50.504 15.84c-3.54.003-6.22 2.742-6.227 6.36-.006 3.647 2.724 6.5 6.23 6.512 3.602.012 6.46-2.866 6.455-6.497-.005-3.545-2.876-6.38-6.458-6.376m6.55-2.053v-2.608h5.492v22.207h-5.462v-2.818c-.092.03-.153.031-.175.061-1.465 1.981-3.544 2.891-5.89 3.173-3.598.432-6.732-.64-9.255-3.277-1.816-1.898-2.738-4.22-3.003-6.818-.28-2.765.11-5.419 1.57-7.806 2.273-3.718 5.676-5.384 10.003-5.18 2.001.095 3.834.707 5.419 1.967.46.366.9.759 1.301 1.099M97.87 15.84c-3.537.005-6.217 2.747-6.22 6.365-.005 3.646 2.73 6.5 6.235 6.507 3.603.008 6.458-2.871 6.449-6.503-.01-3.545-2.88-6.375-6.464-6.37m6.562-2.04v-2.624h5.488v22.212h-5.47v-2.883c-.433.455-.77.874-1.169 1.219-1.813 1.565-3.983 2.19-6.322 2.173-3.084-.021-5.748-1.139-7.865-3.412-1.829-1.963-2.75-4.33-2.979-6.989-.24-2.807.206-5.479 1.752-7.861 2.29-3.528 5.619-5.107 9.795-4.917 2.02.092 3.87.7 5.468 1.974.46.366.895.76 1.302 1.108"/><g fill="#3C1E0F" transform="translate(65.883 10.239)"><path d="M17.305 7.37h-5.198c-.562-2.292-2.928-3.248-4.89-1.993-1.438.92-1.405 2.76.137 3.47.961.44 2.028.659 3.055.949 1.583.446 3.202.777 4.636 1.649 3.118 1.895 3.988 5.876 1.879 8.817-1.13 1.575-2.757 2.447-4.592 2.938-2.995.803-5.906.636-8.633-.942-2.21-1.279-3.472-3.198-3.67-5.773-.006-.064.006-.13.012-.224h5.147c.177 1.529 1.09 2.427 2.553 2.78 1.194.289 2.371.184 3.48-.364.947-.468 1.363-1.236 1.27-2.179-.076-.754-.537-1.23-1.183-1.466-.922-.336-1.877-.586-2.826-.84-1.525-.41-3.054-.786-4.467-1.537C.562 10.82-.005 7.032 1.231 4.553c.873-1.751 2.333-2.88 4.151-3.49 3.16-1.062 6.248-.87 9.12.905 1.894 1.17 2.772 2.975 2.845 5.183.001.063-.024.128-.042.22"/></g><mask id="b" fill="#fff"><use xlink:href="#a"/></mask><path fill="#3C1E0F" d="M114.823 33.39h5.482V11.191h-5.482zM117.254 6.55c-.945-.057-1.939-.617-2.498-1.912-.506-1.172-.39-2.33.342-3.335.836-1.148 1.954-1.512 3.221-1.192 1.162.293 1.932 1.096 2.226 2.428.46 2.084-.985 4.017-3.291 4.01" mask="url(#b)"/><path fill="#D61920" d="M120.284 11.294l-5.461.061v14.817l5.46-6.702z" mask="url(#b)"/></g></g></g></svg>